<?xml version="1.0" encoding="UTF-8"?>
<svg id="Ebene_2" xmlns="http://www.w3.org/2000/svg" viewBox="0 0 626.08 274.12">
  <defs>
    <style>
      .cls-1 {
        opacity: .5;
      }

      .cls-1, .cls-2 {
        fill: #fff;
      }
    </style>
  </defs>
  <path class="cls-2" d="M201.99,9.98c.08-.82.51-4.29,3.52-6.99,2.65-2.37,5.64-2.67,6.55-2.72l21.05.12c.93-.04,4.11-.07,7.08,2.17,2.36,1.78,3.33,4.04,3.68,4.99,6.19,17.23,12.37,34.46,18.56,51.69h2.39c5.98-17.03,11.96-34.07,17.94-51.1.23-.86,1.09-3.71,3.9-5.81,2.53-1.89,5.16-2.08,6.1-2.11,6.75.02,13.51.04,20.26.06.71-.04,5.63-.21,9.27,3.68,3.03,3.24,3.14,7.11,3.14,8.02v115.02c-.06,1.01-.36,3.67-2.37,6.07-3.14,3.75-7.83,3.73-8.48,3.71-2.06-.01-4.12-.03-6.19-.04-.64-.02-5.01-.26-7.91-3.98-2.22-2.85-2.2-5.98-2.16-6.86V40.56c-.1-.55-.43-1.01-.89-1.16-.67-.22-1.56.23-1.86,1.16l-19.75,57.16c-2.09,5.82-7.76,9.4-13.44,8.74-4.67-.54-8.72-3.87-10.4-8.53-6.72-19.25-13.43-38.5-20.15-57.74-.34-.83-1.18-1.24-1.85-1.04-.68.21-.91.97-.92,1.04v87h-28c.31-39.07.61-78.14.92-117.22Z"/>
  <path class="cls-2" d="M.27,156.85c-.18-.8-.88-4.23,1.12-7.74,1.76-3.09,4.5-4.32,5.35-4.66,6.67-2.19,13.33-4.38,20-6.57.87-.33,3.88-1.37,7.4-.19,2.81.94,4.44,2.77,5.08,3.57,11.34,14.37,22.68,28.75,34.01,43.12.75-.25,1.51-.51,2.26-.76.26-18.05.52-36.1.78-54.15-.06-.89-.15-3.86,1.85-6.75,1.8-2.6,4.23-3.61,5.11-3.93,6.41-2.13,12.82-4.25,19.23-6.38.66-.26,5.27-1.99,9.96.55,3.9,2.11,5.23,5.75,5.52,6.61,12.18,36.35,24.35,72.71,36.53,109.06.26.98.82,3.59-.32,6.51-1.79,4.56-6.24,6.02-6.86,6.21-1.96.64-3.92,1.28-5.88,1.92-.62.18-4.84,1.34-8.76-1.26-3.01-2-3.98-4.97-4.23-5.82-9.04-26.98-18.07-53.95-27.11-80.93-.27-.49-.73-.82-1.21-.81-.71,0-1.41.72-1.39,1.69-.19,20.16-.38,40.32-.57,60.47-.14,6.18-4.38,11.37-9.97,12.56-4.6.98-9.5-.9-12.57-4.78-12.48-16.12-24.96-32.24-37.44-48.36-.59-.68-1.51-.81-2.08-.4-.58.42-.55,1.21-.55,1.28,9.21,27.5,18.42,54.99,27.63,82.49.2.62,1.14,3.73-.5,7.08-1.67,3.41-4.8,4.56-5.4,4.77-2.24.8-4.48,1.61-6.72,2.41-.83.25-4.03,1.1-7.58-.46-3.7-1.63-5.23-4.75-5.57-5.51C25.03,230.74,12.65,193.8.27,156.85Z"/>
  <rect class="cls-2" x="358.42" y=".5" width="32.59" height="136.31" rx="13.32" ry="13.32"/>
  <rect class="cls-2" x="170.94" y="125.66" width="28.52" height="105.28" rx="12.19" ry="12.19" transform="translate(-71.13 158.62) rotate(-39.52)"/>
  <rect class="cls-2" x="201.07" y="113.63" width="27.98" height="111.98" rx="12.19" ry="12.19"/>
  <rect class="cls-2" x="448.63" y="-10.41" width="28.92" height="159.29" rx="13.32" ry="13.32" transform="translate(38.86 267.41) rotate(-33.54)"/>
  <rect class="cls-2" x="448.63" y="-10.41" width="28.92" height="159.29" rx="13.32" ry="13.32" transform="translate(810.81 382.81) rotate(-146.46)"/>
  <rect class="cls-2" x="560.7" y="-10.41" width="28.92" height="159.29" rx="13.32" ry="13.32" transform="translate(57.53 329.34) rotate(-33.54)"/>
  <rect class="cls-2" x="560.7" y="-10.41" width="28.92" height="159.29" rx="13.32" ry="13.32" transform="translate(1016.29 444.74) rotate(-146.46)"/>
  <path class="cls-2" d="M314.5,159.13c-25.79,0-46.69,20.9-46.69,46.69s20.9,46.69,46.69,46.69,46.69-20.9,46.69-46.69-20.9-46.69-46.69-46.69ZM314.69,216.18c-5.61,0-10.16-4.55-10.16-10.16s4.55-10.17,10.16-10.17,10.17,4.55,10.17,10.17-4.55,10.16-10.17,10.16ZM347.5,202.11c-.48.14-.96.21-1.43.21-2.16,0-4.14-1.4-4.79-3.58-.79-2.66-4.13-11.76-13.69-16.87-10.92-5.82-21.7-2.05-23.76-1.24-2.56,1.02-5.47-.23-6.49-2.8-1.02-2.57.24-5.47,2.8-6.49,3.89-1.55,17.72-6,32.15,1.71,12.63,6.74,17.2,18.22,18.57,22.84.79,2.65-.71,5.43-3.36,6.22Z"/>
  <path class="cls-2" d="M443.41,159.13c-25.79,0-46.69,20.9-46.69,46.69s20.9,46.69,46.69,46.69,46.69-20.9,46.69-46.69-20.9-46.69-46.69-46.69ZM443.6,216.18c-5.61,0-10.16-4.55-10.16-10.16s4.55-10.17,10.16-10.17,10.17,4.55,10.17,10.17-4.55,10.16-10.17,10.16ZM476.41,202.11c-.48.14-.96.21-1.43.21-2.16,0-4.14-1.4-4.79-3.58-.79-2.66-4.13-11.76-13.69-16.87-10.92-5.82-21.7-2.05-23.76-1.24-2.56,1.02-5.47-.23-6.49-2.8-1.02-2.57.24-5.47,2.8-6.49,3.89-1.55,17.72-6,32.15,1.71,12.63,6.74,17.2,18.22,18.57,22.84.79,2.65-.71,5.43-3.36,6.22Z"/>
  <path class="cls-2" d="M572.33,159.13c-25.79,0-46.69,20.9-46.69,46.69s20.9,46.69,46.69,46.69,46.69-20.9,46.69-46.69-20.9-46.69-46.69-46.69ZM572.52,216.18c-5.61,0-10.16-4.55-10.16-10.16s4.55-10.17,10.16-10.17,10.17,4.55,10.17,10.17-4.55,10.16-10.17,10.16ZM605.33,202.11c-.48.14-.96.21-1.43.21-2.16,0-4.14-1.4-4.79-3.58-.79-2.66-4.13-11.76-13.69-16.87-10.92-5.82-21.7-2.05-23.76-1.24-2.56,1.02-5.47-.23-6.49-2.8-1.02-2.57.24-5.47,2.8-6.49,3.89-1.55,17.72-6,32.15,1.71,12.63,6.74,17.2,18.22,18.57,22.84.79,2.65-.71,5.43-3.36,6.22Z"/>
  <path class="cls-2" d="M200.05,217.84c.33,7.08-.51,13.31-1.68,18.41-.05.6-.23,1.99-1.21,3.38-.98,1.4-2.23,2.05-2.78,2.29l-6.25,2.18c-.79.34-1.96.97-2.98,2.14-2.43,2.79-2.01,6.33-1.92,6.99.13,1.08.26,2.17.39,3.25.23.92,1,3.44,3.4,5.46,1.92,1.63,3.94,2.13,4.91,2.3,3.67.44,9.57.58,15.76-2.18.15-.07,1.91-.86,3.59-1.94,14.19-9.11,17.67-35.22,17.8-45.1,0-.47,0-.97-.04-1.62-.5-6.75-5.18-16.35-12.82-17.21-8.65-.97-15.42,9.28-16.3,16.65-.2,1.64-.01,2.39.11,4.99Z"/>
  <circle class="cls-1" cx="215.08" cy="125.15" r="13.97"/>
</svg>