<?xml version="1.0" encoding="UTF-8"?>
<svg id="Ebene_1" data-name="Ebene 1" xmlns="http://www.w3.org/2000/svg" xmlns:xlink="http://www.w3.org/1999/xlink" viewBox="0 0 403.43 372.86">
  <defs>
    <style>
      .cls-1 {
        fill: none;
      }

      .cls-2 {
        clip-path: url(#clippath);
      }
    </style>
    <clipPath id="clippath">
      <path class="cls-1" d="M.18,196.2c-1.72-13.88,9.43-26.56,23.43-26.56h.83c.05-.07.1-.14.15-.22,4.05-5.55,5.28-12.53,3.38-19.14-4.02-13.97,1.39-28.8,13.43-36.91,5.7-3.84,9.24-9.98,9.72-16.84,1-14.49,11.15-26.58,25.25-30.09,6.67-1.66,12.1-6.21,14.89-12.49,5.36-12.04,17.32-19.83,30.5-19.83,8.34,0,15.5.05,21.79-6.46,6.26-6.49,15.02-10.21,24.04-10.21s15.83,5.64,24.37,5.64,15.8-5.64,24.37-5.64c9.02,0,17.78,3.72,24.04,10.21,6.3,6.53,13.58,6.46,21.78,6.46,13.17,0,25.14,7.78,30.5,19.83.55,1.24,2.38,5.1,6.43,8.34,2.06,1.65,4.06,2.61,5.44,3.18,22.26-20.32,44.51-40.64,66.77-60.97,9.09-7.32,22.36-5.38,28.65,3.39,5.73,7.98,4.34,19.77-3.73,26.62-21.24,19.79-42.48,39.58-63.72,59.37.05.65.13,1.57.29,2.65.12.79.73,5.75,2.85,9.46,1.66,2.91,3.99,5.44,6.87,7.38,12.04,8.12,17.44,22.95,13.44,36.91-1.9,6.6-.67,13.58,3.37,19.14.05.07.1.15.14.22h.83c14.01,0,25.16,12.67,23.43,26.56-1.09,8.8-2.92,17.54-5.45,25.97-11.68,38.93-36.73,65.95-55.69,81.75-15.51,12.93-29.35,20.58-35.5,23.69v23.26c0,12.12-9.87,21.99-21.99,21.99H118.81c-12.12,0-21.99-9.87-21.99-21.99v-23.26c-6.15-3.1-20-10.75-35.5-23.69-18.96-15.81-44.01-42.82-55.69-81.75-2.53-8.44-4.36-17.18-5.45-25.97Z"/>
    </clipPath>
  </defs>
  <g class="cls-2">
    <path d="M.18,196.2c-1.72-13.88,9.43-26.56,23.43-26.56h.83c.05-.07.1-.14.15-.22,4.05-5.55,5.28-12.53,3.38-19.14-4.02-13.97,1.39-28.8,13.43-36.91,5.7-3.84,9.24-9.98,9.72-16.84,1-14.49,11.15-26.58,25.25-30.09,6.67-1.66,12.1-6.21,14.89-12.49,5.36-12.04,17.32-19.83,30.5-19.83,8.34,0,15.5.05,21.79-6.46,6.26-6.49,15.02-10.21,24.04-10.21s15.83,5.64,24.37,5.64,15.8-5.64,24.37-5.64c9.02,0,17.78,3.72,24.04,10.21,6.3,6.53,13.58,6.46,21.78,6.46,13.17,0,25.14,7.78,30.5,19.83.55,1.24,2.38,5.1,6.43,8.34,2.06,1.65,4.06,2.61,5.44,3.18,22.26-20.32,44.51-40.64,66.77-60.97,9.09-7.32,22.36-5.38,28.65,3.39,5.73,7.98,4.34,19.77-3.73,26.62-21.24,19.79-42.48,39.58-63.72,59.37.05.65.13,1.57.29,2.65.12.79.73,5.75,2.85,9.46,1.66,2.91,3.99,5.44,6.87,7.38,12.04,8.12,17.44,22.95,13.44,36.91-1.9,6.6-.67,13.58,3.37,19.14.05.07.1.15.14.22h.83c14.01,0,25.16,12.67,23.43,26.56-1.09,8.8-2.92,17.54-5.45,25.97-11.68,38.93-36.73,65.95-55.69,81.75-15.51,12.93-29.35,20.58-35.5,23.69v23.26c0,12.12-9.87,21.99-21.99,21.99H118.81c-12.12,0-21.99-9.87-21.99-21.99v-23.26c-6.15-3.1-20-10.75-35.5-23.69-18.96-15.81-44.01-42.82-55.69-81.75-2.53-8.44-4.36-17.18-5.45-25.97Z"/>
  </g>
</svg>