<svg width="299" height="277" viewBox="0 0 299 277" fill="none" xmlns="http://www.w3.org/2000/svg">
<mask id="mask0_1383_374" style="mask-type:luminance" maskUnits="userSpaceOnUse" x="0" y="0" width="299" height="277">
<path d="M0.130051 145.381C-1.14442 135.096 7.11742 125.701 17.491 125.701H18.1061C18.1431 125.649 18.1801 125.597 18.2172 125.538C21.2181 121.425 22.1295 116.253 20.7217 111.356C17.743 101.004 21.7516 90.0155 30.6729 84.0063C34.8965 81.1609 37.5195 76.6113 37.8752 71.5283C38.6162 60.7916 46.1371 51.8332 56.5848 49.2324C61.5271 48.0024 65.5505 44.631 67.6179 39.9776C71.5895 31.0563 80.4515 25.2842 90.2175 25.2842C96.3972 25.2842 101.703 25.3212 106.363 20.4975C111.002 15.6886 117.493 12.9321 124.176 12.9321C130.86 12.9321 135.906 17.1112 142.234 17.1112C148.562 17.1112 153.941 12.9321 160.291 12.9321C166.975 12.9321 173.466 15.6886 178.104 20.4975C182.772 25.336 188.167 25.2842 194.243 25.2842C204.001 25.2842 212.871 31.0489 216.842 39.9776C217.25 40.8965 218.606 43.7566 221.607 46.1574C223.133 47.38 224.615 48.0913 225.638 48.5137C242.132 33.4571 258.618 18.4005 275.112 3.33654C281.848 -2.08738 291.681 -0.649891 296.341 5.84844C300.587 11.7614 299.557 20.4975 293.577 25.5731C277.839 40.237 262.101 54.9008 246.363 69.5647C246.4 70.0463 246.459 70.728 246.578 71.5283C246.667 72.1136 247.119 75.7889 248.689 78.5379C249.919 80.6941 251.646 82.5688 253.78 84.0063C262.701 90.023 266.702 101.012 263.739 111.356C262.331 116.246 263.242 121.418 266.236 125.538C266.273 125.59 266.31 125.649 266.339 125.701H266.954C277.335 125.701 285.597 135.089 284.315 145.381C283.508 151.902 282.152 158.378 280.277 164.624C271.622 193.47 253.061 213.491 239.012 225.199C227.52 234.779 217.265 240.448 212.708 242.752V259.987C212.708 268.968 205.394 276.281 196.414 276.281H88.0316C79.0511 276.281 71.7377 268.968 71.7377 259.987V242.752C67.1807 240.455 56.9182 234.787 45.4331 225.199C31.3843 213.484 12.8229 193.47 4.16835 164.624C2.29369 158.37 0.937711 151.894 0.130051 145.381Z" fill="white"/>
</mask>
<g mask="url(#mask0_1383_374)">
<path d="M0.130051 145.381C-1.14442 135.096 7.11742 125.701 17.491 125.701H18.1061C18.1431 125.649 18.1801 125.597 18.2172 125.538C21.2181 121.425 22.1295 116.253 20.7217 111.356C17.743 101.004 21.7516 90.0155 30.6729 84.0063C34.8965 81.1609 37.5195 76.6113 37.8752 71.5283C38.6162 60.7916 46.1371 51.8332 56.5848 49.2324C61.5271 48.0024 65.5505 44.631 67.6179 39.9776C71.5895 31.0563 80.4515 25.2842 90.2175 25.2842C96.3972 25.2842 101.703 25.3212 106.363 20.4975C111.002 15.6886 117.493 12.9321 124.176 12.9321C130.86 12.9321 135.906 17.1112 142.234 17.1112C148.562 17.1112 153.941 12.9321 160.291 12.9321C166.975 12.9321 173.466 15.6886 178.104 20.4975C182.772 25.336 188.167 25.2842 194.243 25.2842C204.001 25.2842 212.871 31.0489 216.842 39.9776C217.25 40.8965 218.606 43.7566 221.607 46.1574C223.133 47.38 224.615 48.0913 225.638 48.5137C242.132 33.4571 258.618 18.4005 275.112 3.33654C281.848 -2.08738 291.681 -0.649891 296.341 5.84844C300.587 11.7614 299.557 20.4975 293.577 25.5731C277.839 40.237 262.101 54.9008 246.363 69.5647C246.4 70.0463 246.459 70.728 246.578 71.5283C246.667 72.1136 247.119 75.7889 248.689 78.5379C249.919 80.6941 251.646 82.5688 253.78 84.0063C262.701 90.023 266.702 101.012 263.739 111.356C262.331 116.246 263.242 121.418 266.236 125.538C266.273 125.59 266.31 125.649 266.339 125.701H266.954C277.335 125.701 285.597 135.089 284.315 145.381C283.508 151.902 282.152 158.378 280.277 164.624C271.622 193.47 253.061 213.491 239.012 225.199C227.52 234.779 217.265 240.448 212.708 242.752V259.987C212.708 268.968 205.394 276.281 196.414 276.281H88.0316C79.0511 276.281 71.7377 268.968 71.7377 259.987V242.752C67.1807 240.455 56.9182 234.787 45.4331 225.199C31.3843 213.484 12.8229 193.47 4.16835 164.624C2.29369 158.37 0.937711 151.894 0.130051 145.381Z" fill="#D9580D"/>
</g>
<path d="M94.3808 94.496C94.3808 94.856 93.2528 95.036 90.9968 95.036L88.9808 94.928C87.7808 94.832 87.1808 94.664 87.1808 94.424L87.1808 70.268C87.1808 69.86 88.3808 69.656 90.7808 69.656C93.1808 69.656 94.3808 69.86 94.3808 70.268L94.3808 79.484L98.7729 70.268C98.9409 69.932 99.9009 69.764 101.653 69.764C104.845 69.764 106.525 70.04 106.693 70.592C106.693 70.64 106.681 70.688 106.657 70.736L100.393 82.04L107.665 92.084C107.665 92.132 107.437 92.336 106.981 92.696C105.877 93.656 104.581 94.412 103.093 94.964C102.637 95.132 102.181 95.216 101.725 95.216L100.861 95.144C100.093 94.952 99.4929 94.46 99.0609 93.668L94.9569 85.82L94.3808 85.82L94.3808 94.496ZM117.209 94.964C117.209 95.132 116.117 95.216 113.933 95.216C111.749 95.168 110.657 95.072 110.657 94.928L110.657 82.976L109.685 82.976C109.301 82.976 108.989 82.748 108.749 82.292C108.533 81.812 108.425 81.224 108.425 80.528C108.425 77.936 109.193 76.64 110.729 76.64C111.809 76.64 112.709 76.976 113.429 77.648C114.149 78.296 114.509 79.04 114.509 79.88C115.013 78.896 115.685 78.116 116.525 77.54C117.389 76.94 118.265 76.64 119.153 76.64C120.545 76.64 121.385 77 121.673 77.72C121.745 77.912 121.781 78.2 121.781 78.584C121.781 78.944 121.661 79.604 121.421 80.564C121.205 81.524 120.977 82.22 120.737 82.652C120.497 83.084 120.353 83.3 120.305 83.3C120.257 83.3 120.029 83.216 119.621 83.048C119.237 82.856 118.889 82.76 118.577 82.76C117.665 82.76 117.209 83.48 117.209 84.92L117.209 94.964ZM137.207 94.028C135.695 94.916 133.751 95.36 131.375 95.36C128.999 95.36 126.995 94.556 125.363 92.948C123.731 91.316 122.915 89.072 122.915 86.216C122.915 83.336 123.695 81.02 125.255 79.268C126.839 77.516 128.831 76.64 131.231 76.64C133.631 76.64 135.479 77.252 136.775 78.476C138.095 79.7 138.755 81.188 138.755 82.94C138.755 86.828 136.523 88.772 132.059 88.772L129.575 88.772C129.575 89.492 129.767 89.996 130.151 90.284C130.559 90.548 131.147 90.68 131.915 90.68C133.595 90.68 135.191 90.296 136.703 89.528C136.727 89.504 136.835 89.672 137.027 90.032C137.603 91.064 137.891 91.94 137.891 92.66C137.891 93.356 137.663 93.812 137.207 94.028ZM132.707 83.624C132.707 82.616 132.215 82.112 131.231 82.112C130.775 82.112 130.379 82.256 130.043 82.544C129.731 82.808 129.575 83.204 129.575 83.732L129.575 84.848L131.519 84.848C132.311 84.848 132.707 84.44 132.707 83.624ZM147.694 94.784C147.694 94.976 146.59 95.072 144.382 95.072C142.198 95.072 141.106 94.988 141.106 94.82L141.106 77.144C141.106 76.976 142.198 76.892 144.382 76.892C146.59 76.892 147.694 76.964 147.694 77.108L147.694 94.784ZM147.694 74.984C147.694 75.152 146.59 75.236 144.382 75.236C142.198 75.236 141.106 75.164 141.106 75.02L141.106 69.836C141.106 69.596 142.198 69.476 144.382 69.476C146.59 69.476 147.694 69.548 147.694 69.692L147.694 74.984ZM164.558 94.028C163.046 94.916 161.102 95.36 158.726 95.36C156.35 95.36 154.346 94.556 152.714 92.948C151.082 91.316 150.266 89.072 150.266 86.216C150.266 83.336 151.046 81.02 152.606 79.268C154.19 77.516 156.182 76.64 158.582 76.64C160.982 76.64 162.83 77.252 164.126 78.476C165.446 79.7 166.106 81.188 166.106 82.94C166.106 86.828 163.874 88.772 159.41 88.772L156.926 88.772C156.926 89.492 157.118 89.996 157.502 90.284C157.91 90.548 158.498 90.68 159.266 90.68C160.946 90.68 162.542 90.296 164.054 89.528C164.078 89.504 164.186 89.672 164.378 90.032C164.954 91.064 165.242 91.94 165.242 92.66C165.242 93.356 165.014 93.812 164.558 94.028ZM160.058 83.624C160.058 82.616 159.566 82.112 158.582 82.112C158.126 82.112 157.73 82.256 157.394 82.544C157.082 82.808 156.926 83.204 156.926 83.732L156.926 84.848L158.87 84.848C159.662 84.848 160.058 84.44 160.058 83.624ZM176.342 94.964C176.342 95.132 175.25 95.216 173.066 95.216C170.882 95.168 169.79 95.072 169.79 94.928L169.79 82.976L168.818 82.976C168.434 82.976 168.122 82.748 167.882 82.292C167.666 81.812 167.558 81.224 167.558 80.528C167.558 77.936 168.326 76.64 169.862 76.64C170.942 76.64 171.842 76.976 172.562 77.648C173.282 78.296 173.642 79.04 173.642 79.88C174.146 78.896 174.818 78.116 175.658 77.54C176.522 76.94 177.398 76.64 178.286 76.64C179.678 76.64 180.518 77 180.806 77.72C180.878 77.912 180.914 78.2 180.914 78.584C180.914 78.944 180.794 79.604 180.554 80.564C180.338 81.524 180.11 82.22 179.87 82.652C179.63 83.084 179.486 83.3 179.438 83.3C179.39 83.3 179.162 83.216 178.754 83.048C178.37 82.856 178.022 82.76 177.71 82.76C176.798 82.76 176.342 83.48 176.342 84.92L176.342 94.964ZM196.339 94.028C194.827 94.916 192.883 95.36 190.507 95.36C188.131 95.36 186.127 94.556 184.495 92.948C182.863 91.316 182.047 89.072 182.047 86.216C182.047 83.336 182.827 81.02 184.387 79.268C185.971 77.516 187.963 76.64 190.363 76.64C192.763 76.64 194.611 77.252 195.907 78.476C197.227 79.7 197.887 81.188 197.887 82.94C197.887 86.828 195.655 88.772 191.191 88.772L188.707 88.772C188.707 89.492 188.899 89.996 189.283 90.284C189.691 90.548 190.279 90.68 191.047 90.68C192.727 90.68 194.323 90.296 195.835 89.528C195.859 89.504 195.967 89.672 196.159 90.032C196.735 91.064 197.023 91.94 197.023 92.66C197.023 93.356 196.795 93.812 196.339 94.028ZM191.839 83.624C191.839 82.616 191.347 82.112 190.363 82.112C189.907 82.112 189.511 82.256 189.175 82.544C188.863 82.808 188.707 83.204 188.707 83.732L188.707 84.848L190.651 84.848C191.443 84.848 191.839 84.44 191.839 83.624ZM100.292 106.016C100.292 105.656 101.24 105.476 103.136 105.476C103.784 105.476 104.528 105.524 105.368 105.62C106.232 105.692 106.664 105.8 106.664 105.944L106.664 124.916L107.924 124.916C108.524 124.916 108.92 125.456 109.112 126.536C109.16 126.848 109.184 127.28 109.184 127.832C109.184 128.36 109.016 129.008 108.68 129.776C108.2 130.832 107.432 131.36 106.376 131.36C105.584 131.36 104.876 131.204 104.252 130.892C103.652 130.58 103.244 130.256 103.028 129.92L102.704 129.452C101.384 130.724 99.7284 131.36 97.7364 131.36C95.7444 131.36 94.0404 130.532 92.6244 128.876C91.2084 127.22 90.5004 124.916 90.5004 121.964C90.5004 118.988 91.2444 116.696 92.7324 115.088C94.2204 113.456 96.0804 112.64 98.3124 112.64C98.9604 112.64 99.6204 112.712 100.292 112.856L100.292 106.016ZM99.1044 118.4C97.7604 118.4 97.0884 119.612 97.0884 122.036C97.0884 123.26 97.2804 124.148 97.6644 124.7C98.0484 125.228 98.4684 125.492 98.9244 125.492C99.4044 125.492 99.8604 125.288 100.292 124.88L100.292 118.76C99.8844 118.52 99.4884 118.4 99.1044 118.4ZM125.148 130.028C123.636 130.916 121.692 131.36 119.316 131.36C116.94 131.36 114.936 130.556 113.304 128.948C111.672 127.316 110.856 125.072 110.856 122.216C110.856 119.336 111.636 117.02 113.196 115.268C114.78 113.516 116.772 112.64 119.172 112.64C121.572 112.64 123.42 113.252 124.716 114.476C126.036 115.7 126.696 117.188 126.696 118.94C126.696 122.828 124.464 124.772 120 124.772L117.516 124.772C117.516 125.492 117.708 125.996 118.092 126.284C118.5 126.548 119.088 126.68 119.856 126.68C121.536 126.68 123.132 126.296 124.644 125.528C124.668 125.504 124.776 125.672 124.968 126.032C125.544 127.064 125.832 127.94 125.832 128.66C125.832 129.356 125.604 129.812 125.148 130.028ZM120.648 119.624C120.648 118.616 120.156 118.112 119.172 118.112C118.716 118.112 118.32 118.256 117.984 118.544C117.672 118.808 117.516 119.204 117.516 119.732L117.516 120.848L119.46 120.848C120.252 120.848 120.648 120.44 120.648 119.624ZM135.636 130.784C135.636 130.976 134.532 131.072 132.324 131.072C130.14 131.072 129.048 130.988 129.048 130.82L129.048 113.144C129.048 112.976 130.14 112.892 132.324 112.892C134.532 112.892 135.636 112.964 135.636 113.108L135.636 130.784ZM135.636 110.984C135.636 111.152 134.532 111.236 132.324 111.236C130.14 111.236 129.048 111.164 129.048 111.02L129.048 105.836C129.048 105.596 130.14 105.476 132.324 105.476C134.532 105.476 135.636 105.548 135.636 105.692L135.636 110.984ZM146.415 130.784C146.415 130.952 145.551 131.036 143.823 131.036C141.423 130.964 140.223 130.832 140.223 130.64L140.223 118.976L139.287 118.976C138.663 118.976 138.255 118.448 138.063 117.392C138.015 117.08 137.991 116.768 137.991 116.456C137.991 115.712 138.135 114.968 138.423 114.224C138.855 113.168 139.527 112.64 140.439 112.64C141.351 112.64 142.167 112.856 142.887 113.288C143.607 113.72 144.087 114.152 144.327 114.584C145.839 113.288 147.639 112.64 149.727 112.64C151.815 112.64 153.327 113.204 154.263 114.332C155.199 115.46 155.667 117.308 155.667 119.876L155.667 130.676C155.667 130.964 154.635 131.108 152.571 131.108C150.531 131.108 149.511 130.964 149.511 130.676L149.511 120.272C149.511 119.072 149.091 118.472 148.251 118.472C148.011 118.472 147.675 118.58 147.243 118.796C146.811 118.988 146.535 119.132 146.415 119.228L146.415 130.784ZM172.328 130.028C170.816 130.916 168.872 131.36 166.496 131.36C164.12 131.36 162.116 130.556 160.484 128.948C158.852 127.316 158.036 125.072 158.036 122.216C158.036 119.336 158.816 117.02 160.376 115.268C161.96 113.516 163.952 112.64 166.352 112.64C168.752 112.64 170.6 113.252 171.896 114.476C173.216 115.7 173.876 117.188 173.876 118.94C173.876 122.828 171.644 124.772 167.18 124.772L164.696 124.772C164.696 125.492 164.888 125.996 165.272 126.284C165.68 126.548 166.268 126.68 167.036 126.68C168.716 126.68 170.312 126.296 171.824 125.528C171.848 125.504 171.956 125.672 172.148 126.032C172.724 127.064 173.012 127.94 173.012 128.66C173.012 129.356 172.784 129.812 172.328 130.028ZM167.828 119.624C167.828 118.616 167.336 118.112 166.352 118.112C165.896 118.112 165.5 118.256 165.164 118.544C164.852 118.808 164.696 119.204 164.696 119.732L164.696 120.848L166.64 120.848C167.432 120.848 167.828 120.44 167.828 119.624ZM183.751 130.784C183.751 130.952 182.887 131.036 181.159 131.036C178.759 130.964 177.559 130.832 177.559 130.64L177.559 118.976L176.623 118.976C175.999 118.976 175.591 118.448 175.399 117.392C175.351 117.08 175.327 116.768 175.327 116.456C175.327 115.712 175.471 114.968 175.759 114.224C176.191 113.168 176.863 112.64 177.775 112.64C178.687 112.64 179.503 112.856 180.223 113.288C180.943 113.72 181.423 114.152 181.663 114.584C183.175 113.288 184.975 112.64 187.063 112.64C189.151 112.64 190.663 113.204 191.599 114.332C192.535 115.46 193.003 117.308 193.003 119.876L193.003 130.676C193.003 130.964 191.971 131.108 189.907 131.108C187.867 131.108 186.847 130.964 186.847 130.676L186.847 120.272C186.847 119.072 186.427 118.472 185.587 118.472C185.347 118.472 185.011 118.58 184.579 118.796C184.147 118.988 183.871 119.132 183.751 119.228L183.751 130.784Z" fill="white"/>
<path d="M95.8633 193.062C92.1846 193.062 90.3453 192.649 90.3453 191.822L89.0433 166.96L81.4793 192.132C81.3139 192.628 79.9086 192.876 77.2633 192.876C74.6179 192.876 73.2539 192.649 73.1713 192.194L65.3593 166.712L64.4913 191.45C64.4499 192.07 63.6646 192.504 62.1353 192.752C60.6059 192.959 59.3246 193.062 58.2913 193.062C57.2993 193.062 56.3279 193 55.3773 192.876C53.3933 192.587 52.4219 192.07 52.4633 191.326L53.8893 151.026C53.8893 150.034 56.4106 149.538 61.4533 149.538C62.9413 149.538 64.7599 149.662 66.9093 149.91C69.0586 150.117 70.2573 150.551 70.5053 151.212L77.4493 170.742L83.5253 151.15C83.8973 150.075 86.7493 149.538 92.0813 149.538C93.6106 149.538 95.4293 149.662 97.5373 149.91C99.6866 150.117 100.761 150.509 100.761 151.088L102.559 191.76C102.559 192.215 101.753 192.545 100.141 192.752C98.5293 192.959 97.1033 193.062 95.8633 193.062ZM200.616 151.274C201.112 150.034 203.695 149.414 208.366 149.414C209.564 149.414 211.032 149.517 212.768 149.724C214.545 149.889 215.434 150.055 215.434 150.22L204.894 171.672L215.806 192.194C215.93 192.401 215.041 192.607 213.14 192.814C211.238 192.979 209.626 193.062 208.304 193.062C203.054 193.062 200.182 192.359 199.686 190.954L195.036 179.112L190.82 191.326C190.406 192.483 187.761 193.062 182.884 193.062C181.685 193.062 180.197 192.979 178.42 192.814C176.642 192.649 175.836 192.421 176.002 192.132L185.674 170.68L175.63 150.22C175.506 150.013 176.353 149.827 178.172 149.662C180.032 149.455 181.602 149.352 182.884 149.352C188.092 149.352 190.944 150.096 191.44 151.584L195.718 162L200.616 151.274Z" fill="#9ABF11"/>
<path d="M112.803 182.336L112.803 160.264L108.401 160.264C107.699 160.264 107.203 159.375 106.913 157.598C106.789 156.73 106.727 155.841 106.727 154.932C106.727 154.023 106.789 153.134 106.913 152.266C107.203 150.489 107.699 149.6 108.401 149.6L129.233 149.6C129.936 149.6 130.411 150.489 130.659 152.266C130.825 153.134 130.907 154.023 130.907 154.932C130.907 155.841 130.825 156.73 130.659 157.598C130.411 159.375 129.936 160.264 129.233 160.264L125.079 160.264L125.079 182.336L129.419 182.336C130.122 182.336 130.618 183.225 130.907 185.002C131.073 185.87 131.155 186.759 131.155 187.668C131.155 188.577 131.073 189.466 130.907 190.334C130.618 192.111 130.122 193 129.419 193L108.525 193C107.823 193 107.347 192.111 107.099 190.334C106.934 189.466 106.851 188.577 106.851 187.668C106.851 186.759 106.934 185.87 107.099 185.002C107.347 183.225 107.823 182.336 108.525 182.336L112.803 182.336ZM229.856 179.98C229.856 180.228 228.368 180.352 225.392 180.352C222.457 180.352 220.99 180.249 220.99 180.042L219.75 149.476C219.75 149.145 221.631 148.98 225.392 148.98C229.195 148.98 231.096 149.125 231.096 149.414L229.856 179.98ZM219.626 183.7C219.626 183.411 221.527 183.266 225.33 183.266C229.174 183.266 231.096 183.39 231.096 183.638L231.096 192.566C231.096 192.979 229.174 193.186 225.33 193.186C221.527 193.186 219.626 193.062 219.626 192.814L219.626 183.7Z" fill="#22DDF2"/>
<path d="M158.293 151.274C158.789 150.034 161.373 149.414 166.043 149.414C167.242 149.414 168.709 149.517 170.445 149.724C172.223 149.889 173.111 150.055 173.111 150.22L162.571 171.672L173.483 192.194C173.607 192.401 172.719 192.607 170.817 192.814C168.916 192.979 167.304 193.062 165.981 193.062C160.732 193.062 157.859 192.359 157.363 190.954L152.713 179.112L148.497 191.326C148.084 192.483 145.439 193.062 140.561 193.062C139.363 193.062 137.875 192.979 136.097 192.814C134.32 192.649 133.514 192.421 133.679 192.132L143.351 170.68L133.307 150.22C133.183 150.013 134.031 149.827 135.849 149.662C137.709 149.455 139.28 149.352 140.561 149.352C145.769 149.352 148.621 150.096 149.117 151.584L153.395 162L158.293 151.274Z" fill="#F2BB16"/>
</svg>
