<?xml version="1.0" encoding="UTF-8"?>
<svg id="Ebene_1" data-name="Ebene 1" xmlns="http://www.w3.org/2000/svg" viewBox="0 0 478.9 400.01">
  <path d="M334.97,314.78c.47,1.56-.74,2.32-1.6,3.19-24.28,24.3-48.78,48.42-72.8,72.98-13.32,13.61-31.48,10.58-42.51-.49-56.72-56.97-113.61-113.77-170.44-170.63-10.63-10.64-11.01-26.6-.69-38.58,3.54-4.11,7.6-7.76,11.44-11.62.66-.66,1.37-1.26,2.41-1.17h.04c-.02,1.48-1.23,2.15-2.1,3.04-3.31,3.39-6.8,6.62-9.96,10.16-10.64,11.91-10.28,26.67.86,37.95,7.48,7.57,15.02,15.07,22.55,22.59,34.75,34.77,69.49,69.53,104.26,104.3,14.64,14.64,29.13,29.47,44.04,43.83,12.09,11.64,26.77,11.33,38.58-.38,20.13-19.96,40.08-40.1,60.19-60.07,5.15-5.12,9.8-10.77,15.73-15.08h0v-.02Z"/>
  <path d="M101.83,127.42c-.35-1.59.97-2.26,1.82-3.1,35.33-35.38,70.68-70.73,106.03-106.1,3.03-3.03,6.21-5.91,9.07-9.09,12.11-13.43,30.75-10.8,41.42-.1,8.58,8.6,17.18,17.19,25.78,25.79,35.27,35.28,70.54,70.55,105.79,105.84,1.08,1.08,2.76,1.94,2.23,3.97l.03-.11c-1.06-.28-1.76-1.08-2.49-1.82-21.17-21.17-42.34-42.35-63.5-63.52-22.89-22.91-45.71-45.91-68.73-68.68-6.67-6.6-14.78-10.24-24.55-8.62-6.12,1.02-10.86,4.41-15.11,8.62-7.15,7.08-14.23,14.24-21.34,21.36-31.07,31.12-62.12,62.24-93.22,93.34-.91.91-1.54,2.4-3.23,2.29l.04-.06h-.02Z"/>
  <path d="M394.01,144.51s-.02.11-.03.11c1.47-.99,2.1.38,2.84,1.11,11.47,11.43,22.79,23.01,34.39,34.33,11.21,10.95,10.36,27.36,1.52,38.11-4.85,5.9-10.56,11.01-16.07,16.29-.6.57-1.24,1.06-2.15.79h0c.37-1.44,1.54-2.27,2.5-3.24,4.06-4.1,8.2-8.14,12.21-12.29,11.85-12.24,11.83-27.26-.11-39.38-9.24-9.38-18.63-18.6-27.88-27.99-2.49-2.53-5.4-4.69-7.22-7.84h0Z"/>
  <path d="M334.97,314.78h0c.24-1.38,1.39-2.08,2.27-2.96,19.28-19.31,38.58-38.61,57.88-57.89.79-.79,1.43-1.85,2.71-2.01l-.08.03c.77,1.65-.71,2.28-1.53,3.09-19.44,19.5-38.91,38.98-58.39,58.44-.76.76-1.39,2.01-2.86,1.29h0Z"/>
  <path d="M101.83,127.42l-.04.06c-.06,1.3-1.07,1.99-1.87,2.79-12.11,12.15-24.22,24.29-36.38,36.41-.76.76-1.31,2-2.75,1.79h-.04c-.26-1.4.83-2.07,1.62-2.86,12.07-12.12,24.15-24.23,36.26-36.33.88-.88,1.74-1.91,3.19-1.86h.01Z"/>
  <path d="M397.74,251.95l.08-.03c4.99-6.12,10.5-11.73,16.67-16.67,0,0,0,.01,0,0,.58,1.09-.2,1.73-.84,2.37-4.39,4.41-8.8,8.81-13.2,13.21-.75.75-1.5,1.47-2.7,1.11h0Z"/>
  <path d="M238.96,20.39c6.91.4,13.01,3.1,18.05,8.13,21.28,21.24,42.56,42.5,63.82,63.77,29.37,29.37,58.71,58.73,88.07,88.11.41.41.81.83,1.21,1.24,11.94,12.08,12,24.75.06,36.76-16.56,16.65-33.18,33.28-49.78,49.89-34.12,34.13-68.24,68.24-102.34,102.39-3.22,3.22-6.57,6.24-10.93,7.76-10.15,3.52-18.44-.27-25.53-7.21-13.39-13.12-26.56-26.48-39.81-39.74-37.89-37.89-75.77-75.8-113.67-113.66-10.85-10.84-10.75-24.5.49-35.86,11.4-11.51,22.86-22.96,34.33-34.43,39.36-39.37,78.74-78.73,118.07-118.11,4.96-4.96,10.39-8.84,17.96-9.03h-.01ZM236.87,317.05c-2.6-4.17-4.72-8.13-7.55-11.63-12.03-14.87-27.41-23.14-46.7-23.57-4.68-.11-6.09,1.79-4.46,5.99,4.33,11.16,11.04,20.61,21.01,27.41,10.13,6.89,21.39,9.61,33.62,8.28,3.87-.42,5.08.65,4.94,4.53-.11,3-.32,6.01-.8,8.97-.35,2.19.59,2.65,2.42,2.66,2.25,0,4.02-.28,3.11-3.3-.29-.98-.2-2.07-.3-3.1-.77-8.52-2.09-9.9,8.46-9.52,24.79.91,42.55-14.87,50.74-35.56,1.84-4.65.51-6.46-4.61-6.36-16.85.31-30.91,6.97-42.55,18.98-4.9,5.05-8.5,11.03-12.23,17.79.33-2.68,1.38-4.19,2.3-5.78,12.73-21.99,12.99-44.12.51-66.27-3.9-6.93-6.18-6.9-10.05.01-12.51,22.33-12.05,44.56.7,66.64.6,1.04,1.67,1.91,1.43,3.84h0ZM190.09,160.17c7.14.03,12.42-3.16,15.73-9.43,3.82-7.24,3.95-14.86,1.53-22.53-2.53-7.97-9.04-12.83-16.97-12.97-7.78-.14-14.33,4.37-17.28,12.07-2.76,7.22-2.56,14.51.26,21.65,2.87,7.24,8.99,11.19,16.74,11.2h-.01ZM126.41,208.61c0-2.08-.16-4.18.04-6.25.25-2.7-.93-3.43-3.42-3.27-2.77.18-5.57.24-8.32-.01-2.86-.26-3.49.87-3.49,3.52,0,4.03,2.88,2.21,4.67,2.63,1.32.31,3.54-.79,3.63,1.46.1,2.36,1.41,5.2-1.26,7.05-5.9,4.08-14.52,1.56-17.17-5.09-2.38-5.95-2.24-12.04.11-17.94,1.39-3.48,3.93-5.99,7.97-6.35,4.89-.44,7,.76,9.39,5.76,1.44,3.01,3.98,2.07,5.98,1.62,2.05-.45,1.04-2.48.7-3.83-1.07-4.31-3.65-7.36-7.81-9.09-9.44-3.91-19.6.18-23.68,9.56-1.41,3.23-1.95,6.64-2.19,10.11-1.23,17.37,11.71,27.93,27.69,22.62,6.83-2.27,7.18-2.76,7.17-10.07v-2.43h0ZM280.41,199.54h.05c0,6.13.08,12.26-.04,18.39-.05,2.77.85,3.92,3.79,3.91,2.95,0,3.84-1.22,3.8-3.95-.08-4.97-.08-9.95.09-14.91.14-4.09,2.67-6.76,6-6.73,3.16.03,4.86,2.21,4.93,6.61.08,4.97.1,9.95-.02,14.92-.06,2.66.62,4.07,3.66,4.05,2.85-.02,3.85-.99,3.76-3.87-.19-5.54-.01-11.1-.06-16.65-.09-9.9-7.1-14.4-16.1-10.17-2.16,1.02-2.38.2-2.39-1.49,0-2.77,0-5.55.1-8.32.11-2.94-1.41-3.63-4.09-3.66-2.89-.03-3.54,1.35-3.51,3.83.07,6.01.02,12.03.02,18.04h.01ZM222.25,130.27c0-4.11-.16-7.67.05-11.21.18-3.07-1.49-3.28-3.87-3.31-2.32-.03-3.64.24-3.61,3.11.13,12.37.12,24.74,0,37.13-.03,2.82,1.07,3.55,3.7,3.5,2.49-.04,3.89-.47,3.79-3.42-.17-5.08-.2-10.18.06-15.26.22-4.23,2.73-6.6,6.19-6.52,3.37.08,4.98,2.23,5.02,6.89.04,5.09.11,10.18-.02,15.26-.07,2.62,1.26,3.11,3.44,3,1.95-.1,4.04.38,3.98-2.78-.12-6.36.15-12.73-.13-19.07-.3-6.84-4.61-10.35-11.48-9.97-2.4.13-4.42,1.18-7.13,2.67h.01ZM369.18,202.59c-1.05-1.67-.69-2.94-.68-4.2.05-5.9.02-11.8.07-17.69.03-3.21-2.18-2.89-4.31-2.96-2.14-.07-3.2.63-3.18,2.96.13,12.6.22,25.22.2,37.82,0,2.33.58,3.38,3.09,3.31,2.44-.07,4.38-.18,4.25-3.43-.15-3.66-.03-7.33-.03-11.84,2.93,3.99,5.75,7.2,7.83,10.84,2.28,3.99,5.48,4.91,9.59,4.36.78-.1,1.73.13,2.18-.73.49-.93-.36-1.49-.83-2.08-2.85-3.64-5.58-7.39-8.64-10.85-2.15-2.42-2.49-4.15.09-6.57,2.77-2.59,5.07-5.69,7.52-8.61.58-.69,1.79-1.58.16-2.46-1.86-1.02-7.11.15-8.58,1.88-2.83,3.33-5.66,6.67-8.73,10.28v-.02ZM148.15,207.95v-.03h7.97c1.38,0,2.67-.23,2.7-1.95.17-9.67-5.61-18.09-16.2-16.2-8.85,1.59-13.58,10.74-11.24,21.24,2.11,9.42,11.8,14.2,20.41,10.08,2.62-1.25,4.47-3.23,5.58-5.9.42-1.01.79-2.29-.66-2.52-2.07-.33-4.37-1.15-6.02,1.16-1.96,2.74-4.82,2.54-7.55,1.9-2.78-.66-3.86-3.03-4.58-5.6-.44-1.56.07-2.18,1.61-2.18h7.98ZM235.12,207.97v-.02h7.97c1.46,0,2.55-.47,2.58-2.1.18-10.24-6.51-18.39-17.01-15.88-7.99,1.91-12.59,10.47-10.76,19.87.92,4.72,3.03,8.69,7.49,11.06,6.74,3.58,15.73,1.09,18.59-5.2.51-1.12,1.41-2.67-.56-3.04-2.03-.37-4.32-1.05-6,1.25-1.95,2.66-4.82,2.54-7.57,1.8-2.6-.7-3.67-2.92-4.4-5.36-.5-1.68-.05-2.4,1.72-2.38,2.66.03,5.31,0,7.97,0h-.02ZM297.31,145.94v-.04h4.16c7.18-.02,7.5.91,5.88-7.76-.97-5.19-4.16-9.2-9.58-10.32-5.08-1.05-9.95-.14-13.6,4.07-4.76,5.48-5.56,15.66-1.68,21.84,3.24,5.15,8.08,6.9,13.98,6.42,4.55-.37,7.84-2.49,9.89-6.54.53-1.06,1.59-2.62-.46-2.94-2.1-.33-4.44-1.35-6.28,1.26-1.63,2.32-4.29,2.53-6.93,1.84-2.77-.72-4.07-2.87-4.88-5.4-.53-1.65.2-2.41,1.86-2.42h7.64ZM248.33,143.62h.4c0,4.28.25,8.58-.08,12.83-.27,3.52,1.85,2.83,3.91,3.01,2.5.21,3.55-.52,3.49-3.2-.11-5.32-.1-10.65.16-15.96.2-4,2.66-6.15,6.19-5.98,3.13.15,4.52,1.9,4.58,6.09.08,5.21.11,10.42-.01,15.62-.05,2.44.56,3.65,3.3,3.44,2.29-.18,4.33.15,4.18-3.33-.25-5.66-.1-11.34-.08-17.01.01-4.12-.65-8-4.67-10.12-4.2-2.21-8.47-2.12-12.43.74-1.01.73-1.5.98-2.38-.33-1.44-2.15-3.85-1.25-5.7-.85-1.79.39-.83,2.32-.85,3.59-.05,3.82-.02,7.63-.02,11.45h.01ZM313.55,206.29c0,4.61.05,8.65-.02,12.7-.05,2.81,1.84,2.74,3.76,2.77,1.99.03,3.69-.07,3.62-2.85-.11-4.85,0-9.71,0-14.56,0-1.52.15-2.99.78-4.4,1.11-2.51,3.06-3.78,5.74-3.59,2.87.21,4.1,2,4.42,4.83.68,5.89.28,11.78.3,17.66,0,2.38.98,3.06,3.1,2.92,1.9-.13,4.23.47,4.21-2.64-.03-6.59.32-13.21-.23-19.75-.74-8.66-9.05-12.44-16.52-7.87-1.26.77-1.83,1.48-3.06-.39-1.15-1.73-3.63-.86-5.53-.66-1,.11-1.16.99-.99,1.87.93,4.82.05,9.69.42,13.96h0ZM163.85,207.22h.25c0,3.81.1,7.63-.04,11.44-.08,2.19.59,3.14,2.91,3.14,3.83,0,4.44-.43,4.47-4.27.04-4.97-.07-9.94.09-14.9.12-3.72,2.79-6.41,5.97-6.39,3.15.02,4.72,1.9,4.84,6.23.14,5.43.15,10.86.11,16.29-.02,2.87,1.74,3.02,3.9,3.02s3.42-.63,3.37-3.17c-.13-6.01-.1-12.02-.02-18.02.05-4.09-.95-7.6-4.81-9.64-4.02-2.12-8.02-1.78-11.86.55-1.08.65-1.7,1.89-2.91-.32-1.01-1.84-3.65-1.15-5.46-.68-1.93.5-.82,2.27-.81,3.55.02,4.39,0,8.77,0,13.16h0ZM248.89,206.45c-.14,3.31.63,6.78,2.67,9.87,3.11,4.69,7.66,6.62,13.13,6.06,4.85-.49,8.51-3.01,10.06-7.81.45-1.39,2.04-3.65-.56-4.36-2.1-.58-4.97-1.51-6.06,1.93-.82,2.58-2.24,4.15-5.26,3.96-2.98-.19-4.77-1.83-5.63-4.38-1.12-3.32-1.37-6.78-.34-10.24.88-2.95,2.37-5.43,5.72-5.74,3.02-.28,4.29,1.74,5.47,4.31,1.25,2.74,4.17,1.75,6.15,1.14,1.88-.58.78-2.57.33-3.91-1.66-4.98-5.34-7.4-10.41-7.75-9.11-.63-15.25,6.09-15.26,16.92h0ZM201.02,208.87c0,3.12.14,6.25-.04,9.37-.17,2.85,1.18,3.56,3.73,3.57,2.53.01,3.53-.94,3.48-3.48-.11-5.78-.07-11.57-.05-17.35.02-4.61-.42-5.32,4.88-5.05,2.44.13,3.14-.99,3.13-3.34-.01-2.26-.73-3.1-2.99-3.06-5.67.1-11.34,0-17,.06-2.99.04-4.32,2.12-3.18,4.87.91,2.2,2.96,1.5,4.54,1.43,2.72-.12,3.73.87,3.56,3.62-.2,3.11-.05,6.24-.05,9.37h-.01ZM346.33,206.04h-.03c0,4.15.11,8.3-.04,12.45-.11,3.05,1.68,3.26,4,3.3,2.31.04,3.73-.45,3.7-3.2-.08-8.3-.1-16.6.02-24.9.04-2.82-1.26-3.52-3.79-3.51-2.45.01-3.99.49-3.9,3.41.13,4.15.03,8.3.03,12.45h0ZM351.08,177.59c-3.49-.02-5.59,1.96-5.4,4.54.19,2.67,1.71,4.28,4.49,4.21,2.74-.07,4.23-1.56,4.22-4.37,0-2.77-1.31-4.31-3.31-4.37h0Z"/>
  <path d="M179.16,137.84c.09-3.63.54-7.04,2.14-10.21,1.83-3.64,4.87-5.61,8.89-5.61s6.92,2.04,8.55,5.56c3.07,6.64,3.12,13.45.1,20.13-1.64,3.64-4.53,5.74-8.73,5.71-4.3-.03-7.16-2.18-8.98-5.93-1.5-3.09-1.8-6.42-1.97-9.64h0Z"/>
  <path d="M144.69,202.07c-.69,0-1.4.09-2.07-.02-1.18-.19-2.92.63-3.43-.77-.53-1.47.63-2.84,1.68-3.93,2.93-3.01,7.77-2.07,9.46,1.75.87,1.98.64,3.11-1.84,2.97-1.26-.07-2.53-.01-3.8,0h0Z"/>
  <path d="M231.71,202.06c-.69,0-1.4.09-2.07-.02-1.27-.21-3.14.77-3.67-.88-.47-1.45.75-2.83,1.84-3.87,1.95-1.84,4.2-2.23,6.66-1.01,1.9.95,3.4,2.58,3.06,4.57-.38,2.18-2.67.87-4.09,1.19-.55.12-1.15.02-1.72.02h-.01Z"/>
  <path d="M294.06,140.09c-.8,0-1.62.09-2.41-.03-1.17-.18-2.88.76-3.38-.72-.44-1.29.59-2.64,1.48-3.71,2.79-3.35,8.18-2.49,9.95,1.49.9,2.01.58,3.08-1.85,2.98-1.26-.05-2.53,0-3.79-.01h0Z"/>
</svg>