<?xml version="1.0" encoding="UTF-8"?>
<svg id="Ebene_1" data-name="Ebene 1" xmlns="http://www.w3.org/2000/svg" viewBox="0 0 400.01 400.01">
  <path d="M0,199.92C-.22,89.73,89.93-1.3,202.42.01c109.91,1.28,198.51,91.36,197.55,201.8-.96,109.95-90.92,199.06-201.62,198.18C88.48,399.13-.24,309.55.01,199.92H0ZM182.61,210.46c.03-.29.07-.53.07-.78v-42.9c0-1.1-.02-1.11-1.14-1.25-10.82-1.3-21.46-.35-31.88,2.78-30.83,9.26-54.86,36.97-56.27,72.89-.29,7.43.52,14.77,2.33,21.99,8.08,32.2,36.1,57.52,72.26,59.53,7.63.42,15.21-.14,22.61-2.07,26.17-6.82,44.62-22.68,55.06-47.66,3.94-9.42,5.55-19.36,5.53-29.57-.02-11.65,0-23.3,0-34.95v-49.5c0-.51-.15-1.06.23-1.64,1.86,1.58,3.68,3.05,5.63,4.36,6.91,4.65,14.5,7.79,22.43,10.17,9.46,2.84,19.14,4.5,28.98,5.31,1.48.12,1.49.12,1.49-1.38v-40.8c0-1.35-.01-1.35-1.41-1.45-.25-.02-.5-.03-.75-.05-5.56-.31-11.03-1.19-16.37-2.76-13.69-4.01-24.41-11.92-31.59-24.36-5.43-9.41-8.03-19.64-8.61-30.43-.07-1.41-.11-1.28-1.36-1.29h-40.5c-1.53,0-2.3.76-2.3,2.29v166.33c0,2.1-.08,4.2-.43,6.28-3.14,18.86-21.08,31.77-39.93,28.74-19.34-3.11-32.33-21.53-28.74-40.78,3.59-19.23,22.58-31.83,41.68-27.68.96.21,1.9.58,2.95.6h.02Z"/>
</svg>