<?xml version="1.0" encoding="UTF-8"?>
<svg id="Ebene_1" data-name="Ebene 1" xmlns="http://www.w3.org/2000/svg" viewBox="0 0 400.01 400.01">
  <path d="M187.99,0h24.18c1.16.77,2.5.61,3.78.7,10.91.78,21.66,2.52,32.25,5.26,98.24,25.34,161.07,116.19,149.59,217.23-5.79,50.94-28.2,94.03-67.34,127.03-57.6,48.57-123.66,62.41-195,37.95C62.27,363.09,18.71,310.23,3.16,234.46c-1.51-7.34-2.13-14.87-3.16-22.3v-24.96c1.01-7.3,1.81-14.65,3.05-21.91C16.92,84.4,80.32,19.53,160.65,3.84,169.7,2.08,178.88,1.36,187.98,0h0ZM99.85,199.67c0,13.13-.02,26.25,0,39.38.07,34.26,26.23,60.39,60.56,60.45,26.25.04,52.52.05,78.77,0,34.1-.07,60.26-26.18,60.34-60.26.07-26.38.06-52.77,0-79.16-.08-34.04-26.26-60.18-60.36-60.24-26.38-.05-52.77-.06-79.16,0-33.84.08-60.04,26.28-60.15,60.05-.04,13.26,0,26.51,0,39.77h0Z"/>
  <path d="M279.39,199.68c0,12.86.04,25.73,0,38.6-.08,24.45-16.69,41.04-41.18,41.08-25.73.05-51.47.06-77.2,0-24.23-.06-40.93-16.7-40.99-40.88-.07-25.86-.07-51.73,0-77.59.06-24.2,16.79-40.85,40.98-40.87,25.86-.02,51.73-.03,77.59,0,23.95.03,40.67,16.69,40.8,40.66.07,12.99,0,25.99,0,38.99h0ZM199.69,251.25c28.28.07,51.43-22.89,51.56-51.12.12-28.84-22.74-51.97-51.43-52.03-28.6-.06-51.6,22.76-51.72,51.31-.12,28.75,22.79,51.78,51.6,51.84h0ZM251.66,160.72c6.95,0,12.65-5.63,12.72-12.54.07-7.05-5.77-12.93-12.82-12.9-6.88.03-12.65,5.73-12.74,12.6-.1,7.05,5.71,12.85,12.84,12.84Z"/>
  <path d="M231.15,199.1c.36,17.42-13.28,31.61-30.8,32.03-17.56.42-31.9-13.45-32.14-31.09-.24-17.4,13.52-31.54,31-31.84,17.44-.3,31.57,13.38,31.93,30.9h0Z"/>
</svg>